<svg id="Capa_1" height="512" viewBox="0 0 605.644 605.644" width="512" xmlns="http://www.w3.org/2000/svg"><g><g id="Page-1_6_"><g id="_x30_07---Science" transform="translate(-1)"><path id="Shape_29_" d="m394.643 302.822c0-50.173-40.673-90.847-90.847-90.847s-90.847 40.673-90.847 90.847 40.673 90.847 90.847 90.847c50.151-.056 90.791-40.697 90.847-90.847zm-161.505 0c0-39.024 31.635-70.658 70.658-70.658s70.658 31.635 70.658 70.658-31.635 70.658-70.658 70.658c-39.005-.044-70.613-31.653-70.658-70.658z"/><path id="Shape_28_" d="m39.877 454.233c8.255 13.35 20.748 23.546 35.481 28.96.204 6.492 1.988 12.836 5.198 18.482 8.167 14.144 24.05 21.975 40.243 19.84 16.192-2.135 29.504-13.814 33.727-29.591 0-.081 0-.162 0-.242 14.707-1.258 29.319-3.449 43.748-6.561 23.761 73.626 61.826 120.523 105.523 120.523s81.762-46.897 105.483-120.553c14.43 3.107 29.041 5.298 43.748 6.561v.242c5 19.361 23.46 32.112 43.337 29.935s35.14-18.622 35.83-38.606c14.752-5.414 27.261-15.622 35.521-28.99 9.635-18.022 11.477-39.202 5.098-58.616-7.692-28.728-27.769-60.746-57.042-92.795 29.273-32.049 49.4-64.067 57.092-92.865 6.348-19.4 4.488-40.551-5.148-58.546-21.985-37.913-82.176-47.392-158.477-30.979-23.681-73.585-61.776-120.432-105.443-120.432-15.192.251-29.877 5.506-41.779 14.949-5.765-3.143-12.219-4.811-18.785-4.855-16.289.015-30.973 9.817-37.235 24.854s-2.875 32.364 8.588 43.937c-6.258 13.489-11.653 27.363-16.15 41.537-76.331-16.453-136.552-6.955-158.557 30.989-9.619 18.029-11.442 39.208-5.047 58.616 7.692 28.758 27.819 60.776 57.092 92.865-29.273 32.049-49.4 64.067-57.092 92.865-6.356 19.366-4.533 40.486 5.046 58.476zm95.147 32.412c-1.363 5.179-4.749 9.594-9.398 12.254-6.25 3.664-13.983 3.698-20.265.09s-10.149-10.306-10.133-17.55 3.912-13.925 10.21-17.505c3.066-1.781 6.549-2.718 10.094-2.715 1.772.003 3.537.237 5.249.697 5.173 1.386 9.582 4.771 12.259 9.409s3.401 10.15 2.014 15.322h-.03zm168.772 98.81c-34.067 0-65.127-41.487-85.688-105.251 29.318-7.89 57.969-18.076 85.688-30.464 27.718 12.389 56.37 22.576 85.688 30.464-20.561 63.765-51.62 105.251-85.688 105.251zm-111.034-282.633c0-21.409 1.009-42.476 2.847-62.896 16.524-11.598 33.997-22.762 52.247-33.23 18.664-10.71 37.409-20.279 55.951-28.758 18.533 8.479 37.277 18.058 55.931 28.758 18.169 10.447 35.662 21.591 52.156 33.169 1.928 20.329 2.937 41.396 2.937 62.957s-1.009 42.627-2.937 62.957c-16.494 11.578-33.936 22.722-52.146 33.159-18.573 10.649-37.348 20.279-55.951 28.819-18.624-8.54-37.348-18.169-55.941-28.808-18.169-10.447-35.662-21.591-52.156-33.169-1.929-20.331-2.938-41.397-2.938-62.958zm-18.674 47.078c-19.066-14.491-37.159-30.218-54.165-47.079 17.023-16.88 35.137-32.624 54.225-47.129-1.03 15.464-1.575 31.211-1.575 47.129s.515 31.767 1.515 47.079zm24.549-136.542c3.046-23.154 7.608-46.083 13.657-68.64 22.706 6.083 44.999 13.615 66.742 22.55-13.667 6.729-27.412 14.051-41.234 21.965-13.513 7.759-26.568 15.801-39.165 24.125zm129.93-46.12c21.704-8.92 43.956-16.442 66.621-22.52 6.026 22.538 10.588 45.442 13.657 68.569-12.544-8.311-25.562-16.342-39.054-24.094-13.795-7.921-27.536-15.239-41.224-21.955zm104.978 88.505c19.049 14.495 37.129 30.222 54.124 47.079-17.005 16.861-35.099 32.588-54.165 47.079 1.009-15.316 1.514-31.009 1.514-47.079s-.505-31.763-1.514-47.079zm-24.7 136.613c-3.068 23.102-7.623 45.982-13.637 68.498-22.786-6.042-45.149-13.578-66.944-22.56 13.879-6.793 27.759-13.95 41.527-21.844 13.473-7.718 26.491-15.749 39.054-24.094zm-171.033 24.105c13.768 7.894 27.638 15.04 41.517 21.833-21.793 8.987-44.157 16.523-66.944 22.56-6.014-22.516-10.569-45.396-13.637-68.498 12.543 8.277 25.564 16.312 39.064 24.105zm271.742 75.12c-5.59 9.641-17.923 12.949-27.587 7.399-7.079-4.081-11-12.027-9.932-20.128s6.913-14.759 14.808-16.867c1.712-.459 3.476-.693 5.249-.697 3.546-.003 7.029.934 10.094 2.715 4.638 2.676 8.024 7.084 9.411 12.256 1.388 5.172.664 10.683-2.012 15.321h-.031zm40.709-47.442c-5.266 8.5-13.019 15.174-22.207 19.118-7.421-15.17-23.553-24.062-40.342-22.235s-30.632 13.98-34.616 30.391c-12.812-1.153-25.546-3.058-38.135-5.703 7.755-29.131 13.176-58.835 16.211-88.828 25.033-17.886 48.597-37.744 70.467-59.383 26.588 29.273 44.898 58.091 51.661 83.367 4.889 14.24 3.793 29.855-3.039 43.273zm0-282.573c6.82 13.411 7.912 29.013 3.028 43.243-6.763 25.235-25.074 54.124-51.661 83.367-21.865-21.625-45.422-41.469-70.446-59.343-3.028-29.994-8.449-59.698-16.211-88.828 66.156-14.202 118.131-8.065 135.291 21.5v.061zm-307.031-131.284c11.15 0 20.188 9.039 20.188 20.188s-9.039 20.188-20.188 20.188c-11.15 0-20.188-9.039-20.188-20.188s9.038-20.188 20.188-20.188zm-11.103 58.798c3.598 1.114 7.337 1.709 11.103 1.766 14.725.05 28.301-7.947 35.395-20.85s6.573-28.651-1.358-41.057c7.774-5.492 17.011-8.539 26.527-8.752 34.027 0 65.056 41.386 85.608 104.978-29.299 7.889-57.925 18.092-85.608 30.514-27.72-12.425-56.383-22.629-85.719-30.514 3.975-12.292 8.667-24.341 14.052-36.085zm-174.789 72.425c17.16-29.616 69.185-35.753 135.351-21.541-7.701 29.113-13.101 58.787-16.151 88.747-25.077 17.897-48.681 37.772-70.588 59.434-26.588-29.273-44.898-58.091-51.661-83.367-4.888-14.241-3.788-29.857 3.049-43.273zm-3.028 239.34c6.763-25.235 25.074-54.124 51.661-83.367 21.867 21.622 45.424 41.466 70.446 59.343 3.035 29.993 8.456 59.696 16.211 88.828-12.589 2.645-25.323 4.55-38.135 5.703-4.16-16.26-17.969-28.234-34.653-30.049-16.685-1.815-32.746 6.909-40.305 21.893-9.18-3.928-16.932-10.58-22.207-19.058-6.835-13.416-7.935-29.031-3.048-43.273z"/></g></g></g></svg>