<svg id="Capa_1" enable-background="new 0 0 605.734 605.734" height="512" viewBox="0 0 605.734 605.734" width="512" xmlns="http://www.w3.org/2000/svg"><g><g id="Page-1_9_"><g id="_x30_10---Woodworking"><path id="Shape_40_" d="m501.952 313.928 95.026-95.015c11.616-11.646 11.616-30.497 0-42.143l-168.066-168.066c-11.651-11.605-30.492-11.605-42.143 0l-102.162 102.182-104.796-104.887c-8.283-7.974-21.396-7.947-29.646.061l-143.962 144.193c-3.866 3.839-6.076 9.038-6.157 14.485v28.97c.017 11.266 9.154 20.39 20.42 20.39h23.095l-.111 23.014c.017 11.27 9.16 20.396 20.43 20.39l22.974.101v22.914c.015 7.351 4.004 14.12 10.427 17.695l-88.524 88.514c-11.616 11.646-11.616 30.496 0 42.143l168.066 168.076c11.648 11.611 30.494 11.611 42.143 0l95.056-95.066 93.35 93.41c9.026 9.016 22.177 12.531 34.498 9.222s21.941-12.94 25.235-25.265-.236-25.471-9.263-34.487l-3.563-3.856 86.96-86.809 3.594 3.583c13.916 13.903 36.455 13.934 50.41.071 6.74-6.64 10.508-15.724 10.447-25.185.032-9.464-3.718-18.55-10.417-25.235zm-100.94-290.951c3.757-3.739 9.83-3.739 13.587 0l12.658 12.658-88.747 88.737c-2.624 2.534-3.676 6.287-2.753 9.817.924 3.529 3.68 6.285 7.209 7.209s7.282-.129 9.817-2.753l88.747-88.737 21.41 21.41-45.918 45.918c-3.941 3.944-3.939 10.337.005 14.278s10.337 3.939 14.278-.005l45.947-45.909 42.829 42.839-74.696 74.696c-2.624 2.534-3.676 6.287-2.753 9.817.924 3.529 3.68 6.285 7.209 7.209s7.282-.129 9.817-2.753l74.696-74.696 21.41 21.41-45.908 45.918c-2.624 2.534-3.676 6.287-2.753 9.817.924 3.529 3.68 6.285 7.209 7.209s7.282-.129 9.817-2.753l45.908-45.918 12.668 12.668c3.727 3.758 3.727 9.818 0 13.577l-95.015 95.015-19.451-19.461 27.254-27.375c3.82-3.966 3.757-10.262-.143-14.15-3.899-3.888-10.195-3.934-14.151-.103l-27.254 27.355-6.985-6.995c-5.179-4.962-12.566-6.874-19.502-5.047l-44.959-44.999 27.415-27.415c3.825-3.961 3.771-10.256-.123-14.15s-10.189-3.948-14.15-.123l-27.405 27.415-69.356-69.437zm-314.299 214.236h-23.075l.111-22.964c.003-5.422-2.15-10.623-5.984-14.457s-9.035-5.987-14.457-5.984l-23.075-.101.081-29.01 144.053-144.254c.361-.283.858-.315 1.252-.081l245.518 245.71-112.217 112.276c-4.527 4.522-6.643 10.922-5.703 17.251l8.338 58.717h-20.996l.101-22.954c-.011-11.256-9.134-20.379-20.39-20.39l-23.115-.05.101-23.065c.024-5.455-2.161-10.687-6.056-14.505-3.798-3.763-8.947-5.846-14.293-5.784h-23.125l.071-23.156c.021-5.451-2.163-10.679-6.056-14.495-3.781-3.802-8.952-5.895-14.313-5.794l-23.014-.202v-22.914c.011-11.246-9.094-20.373-20.34-20.39l-23.085-.101v-22.722c.081-5.439-2.026-10.683-5.849-14.554-3.826-3.869-9.043-6.041-14.483-6.027zm117.969 345.449c-3.757 3.739-9.83 3.739-13.587 0l-12.658-12.658 45.918-45.918c3.825-3.961 3.771-10.256-.123-14.15s-10.189-3.948-14.15-.123l-45.918 45.918-21.41-21.41 69.649-69.649c3.825-3.961 3.771-10.256-.123-14.15s-10.189-3.948-14.15-.123l-69.649 69.649-42.829-42.839 45.908-45.908c3.825-3.961 3.771-10.256-.123-14.15s-10.189-3.948-14.15-.123l-45.907 45.908-21.409-21.409 69.649-69.649c3.825-3.961 3.771-10.256-.123-14.15s-10.189-3.948-14.15-.123l-69.649 69.649-12.668-12.668c-3.727-3.758-3.727-9.818 0-13.576l100.032-100.032h7.197v22.722c-.106 5.44 1.988 10.692 5.807 14.566 3.82 3.875 9.041 6.044 14.482 6.015l23.115.05-.111 23.095c-.025 5.449 2.16 10.676 6.056 14.485.222.222.485.374.707.575l-13.122 13.122c-3.941 3.944-3.939 10.337.005 14.278s10.337 3.939 14.278-.005l22.207-22.207h13.405l-.121 23.156c-.021 5.451 2.163 10.679 6.056 14.495 3.829 3.724 8.962 5.804 14.303 5.794l23.115.162-.071 22.954c.016 1.558.209 3.109.575 4.623l-22.348 22.358c-2.624 2.534-3.676 6.287-2.753 9.817.924 3.529 3.68 6.285 7.209 7.209s7.282-.129 9.817-2.753l21.874-21.884c1.955.645 3.998.985 6.056 1.009l23.64-.071 1.009 7.318zm376.317-139.227c-6.061 6.037-15.863 6.037-21.924 0l-3.594-3.593c-3.808-3.831-8.993-5.976-14.394-5.955-5.396-.01-10.574 2.134-14.384 5.955l-86.728 86.809c-7.938 7.958-7.938 20.84 0 28.798l3.593 3.583c5.987 6.082 5.987 15.843 0 21.924-6.094 5.985-15.86 5.985-21.955 0l-95.217-95.389-13.193-92.906 119.493-119.463 14.132 14.132 134.13 134.251c2.92 2.907 4.556 6.862 4.542 10.982.039 4.085-1.586 8.01-4.501 10.872z"/><path id="Shape_39_" d="m450.967 385.323-65.5 65.611c-13.787 13.818-13.787 36.188 0 50.006.151.162.515.474.848.747 6.527 6.433 15.324 10.037 24.488 10.033h.071c9.383.022 18.385-3.715 24.993-10.377l65.611-65.51c13.638-14.012 13.476-36.385-.362-50.198-13.839-13.814-36.211-13.935-50.199-.272zm36.228 36.258-65.611 65.49c-2.823 2.875-6.68 4.5-10.71 4.512-3.977-.003-7.787-1.599-10.579-4.431-.161-.162-.495-.454-.818-.717-5.653-5.982-5.523-15.374.293-21.198l65.5-65.611c6.106-5.846 15.766-5.736 21.738.247s6.064 15.643.207 21.738z"/><path id="Shape_38_" d="m161.55 131.225c8.036.016 15.748-3.17 21.43-8.852 10.26-10.225 11.867-26.274 3.835-38.329s-23.461-16.755-36.849-11.225-21.002 19.75-18.184 33.958c2.818 14.209 15.283 24.446 29.768 24.448zm-7.146-37.428c3.947-3.95 10.348-3.952 14.298-.005s3.952 10.348.005 14.298c-2.553 2.555-6.276 3.554-9.765 2.62s-6.216-3.658-7.152-7.147c-.936-3.488.061-7.211 2.614-9.766z"/></g></g></g></svg>