<svg id="Capa_1" enable-background="new 0 0 596.616 596.616" height="512" viewBox="0 0 596.616 596.616" width="512" xmlns="http://www.w3.org/2000/svg"><g><g id="Page-1_13_"><g id="_x30_14---Career-Studies"><path id="Shape_53_" d="m268.807 40.449c-126.118 0-228.357 102.239-228.357 228.357s102.239 228.357 228.357 228.357 228.357-102.239 228.357-228.357c-.142-126.059-102.298-228.214-228.357-228.357zm0 19.858c115.099.126 208.374 93.401 208.5 208.5h-109.214v-148.929c0-5.483-4.445-9.929-9.929-9.929s-9.929 4.445-9.929 9.929v9.929h-89.357c-8.03.002-15.269 4.84-18.342 12.259s-1.375 15.958 4.303 21.637l15.747 15.747-15.747 15.747c-5.677 5.679-7.375 14.218-4.303 21.637 3.073 7.419 10.311 12.257 18.342 12.259h89.357v39.714h-19.857c-10.967 0-19.857 8.89-19.857 19.857v19.857h-49.643c-10.967 0-19.857 8.89-19.857 19.857v19.857h-49.643c-10.967 0-19.857 8.89-19.857 19.857v19.857h-49.643c-6.273.03-12.163 3.023-15.886 8.072-48.733-62.826-57.416-147.926-22.376-219.3s107.68-116.548 187.191-116.414zm5.818 105.103-15.747-15.747h89.357v59.572h-89.357l15.747-15.747c7.752-7.754 7.752-20.323 0-28.078zm-5.818 311.897c-56.092.007-109.804-22.663-148.929-62.858v-6.642h49.643c10.967 0 19.857-8.89 19.857-19.857v-19.857h49.643c10.967 0 19.857-8.89 19.857-19.857v-19.857h49.643c10.967 0 19.857-8.89 19.857-19.857v-19.857h147.936c-10.344 106.897-100.11 188.503-207.507 188.642z"/><path id="Shape_52_" d="m489.45 420.803c78.788-114.285 57.45-269.789-49.211-358.627s-263.459-81.705-361.614 16.449-105.287 254.954-16.449 361.614 244.342 127.999 358.627 49.211l92.773 92.773c12.241 12.367 30.166 17.235 46.982 12.76s29.95-17.609 34.425-34.425-.393-34.74-12.76-46.982zm-468.858-151.996c0-137.085 111.129-248.215 248.215-248.215s248.215 111.129 248.215 248.215-111.13 248.214-248.215 248.214c-137.022-.153-248.062-111.193-248.215-248.214zm547.581 299.376c-11.341 10.854-29.217 10.854-40.558 0l-90.747-90.747c14.924-12.045 28.523-25.644 40.568-40.568l90.747 90.747c11.18 11.214 11.175 29.36-.01 40.568z"/></g></g></g></svg>