<svg id="Capa_1" enable-background="new 0 0 605.644 605.644" height="512" viewBox="0 0 605.644 605.644" width="512" xmlns="http://www.w3.org/2000/svg"><g><g id="Page-1_14_"><g id="_x30_15---Language-Studies"><path id="Shape_56_" d="m575.361 121.129h-10.094v-10.094c0-16.724-13.558-30.282-30.282-30.282h-191.787v-40.377c0-22.299-18.077-40.376-40.376-40.376h-181.693c-22.299 0-40.377 18.077-40.377 40.376v40.376h-10.094c-16.724 0-30.282 13.558-30.282 30.282v10.094h-10.094c-16.724.001-30.282 13.559-30.282 30.283v393.668c0 16.724 13.558 30.282 30.282 30.282h211.975c0 16.724 13.558 30.282 30.282 30.282h60.564c16.724 0 30.282-13.558 30.282-30.282h211.975c16.724 0 30.282-13.558 30.282-30.282v-393.668c.002-16.724-13.556-30.282-30.281-30.282zm-514.797 371.623c3.233 1.195 6.648 1.824 10.094 1.857h201.882c11.15 0 20.188 9.039 20.188 20.188v5.673c-6.101-3.663-13.073-5.622-20.188-5.673h-201.882c-5.575 0-10.094-4.519-10.094-10.094zm222.07-321.153c0-11.15 9.039-20.188 20.188-20.188h181.693c11.15 0 20.188 9.039 20.188 20.188v141.317c0 11.15-9.039 20.188-20.188 20.188h-20.188c-5.575 0-10.094 4.519-10.094 10.094v38.691l-53.993-46.352c-1.83-1.57-4.161-2.432-6.571-2.433h-90.847c-11.15 0-20.188-9.039-20.188-20.188zm30.282 343.198c0-11.15 9.039-20.188 20.188-20.188h201.881c3.446-.033 6.861-.662 10.094-1.857v11.951c0 5.575-4.519 10.094-10.094 10.094h-201.881c-7.116.051-14.087 2.01-20.188 5.673zm222.069-413.856c5.575 0 10.094 4.519 10.094 10.094v353.292c0 5.575-4.519 10.094-10.094 10.094h-201.881c-7.116.051-14.087 2.01-20.188 5.673v-126.802h77.018l53.499 45.918c3.377 2.928 7.694 4.544 12.163 4.552 2.726-.001 5.419-.593 7.894-1.736 6.691-3.02 10.975-9.698 10.932-17.039v-31.695h10.094c22.299 0 40.376-18.077 40.376-40.376v-141.317c0-22.299-18.077-40.376-40.376-40.376h-141.318v-30.282zm-434.044-60.565c0-11.15 9.039-20.188 20.188-20.188h181.693c11.15 0 20.188 9.039 20.188 20.188v90.847h-20.188c-22.299 0-40.376 18.077-40.376 40.376v30.282h-50.47c-2.411 0-4.742.863-6.571 2.433l-53.993 46.352v-38.691c0-5.575-4.519-10.094-10.094-10.094h-20.188c-11.15 0-20.188-9.039-20.188-20.188v-141.317zm-40.377 70.659c0-5.575 4.519-10.094 10.094-10.094h10.094v80.752c0 22.299 18.077 40.376 40.376 40.376h10.094v31.695c-.044 7.341 4.241 14.019 10.932 17.039 2.475 1.143 5.168 1.735 7.894 1.736 4.473-.008 8.793-1.624 12.173-4.552l53.488-45.918h46.736v90.847c.069 18.355 12.51 34.354 30.282 38.943v128.195c-6.105-3.648-13.076-5.593-20.188-5.632h-201.881c-5.575 0-10.094-4.519-10.094-10.094zm524.891 434.044c0 5.575-4.519 10.094-10.094 10.094h-222.069c-5.575 0-10.094 4.519-10.094 10.094v10.094c0 5.575-4.519 10.094-10.094 10.094h-60.564c-5.575 0-10.094-4.519-10.094-10.094v-10.094c0-5.575-4.519-10.094-10.094-10.094h-222.07c-5.575 0-10.094-4.519-10.094-10.094v-393.668c0-5.575 4.519-10.094 10.094-10.094h10.094v363.386c0 16.724 13.558 30.282 30.282 30.282h201.882c11.15 0 20.188 9.039 20.188 20.188 0 5.575 4.519 10.094 10.094 10.094s10.094-4.519 10.094-10.094c0-11.15 9.039-20.188 20.188-20.188h201.881c16.724 0 30.282-13.558 30.282-30.282v-363.386h10.094c5.575 0 10.094 4.519 10.094 10.094z"/><path id="Shape_55_" d="m181.693 171.599c5.575 0 10.094-4.519 10.094-10.094v-30.282h40.376v30.282c0 5.575 4.519 10.094 10.094 10.094s10.094-4.519 10.094-10.094v-70.658c0-22.299-18.077-40.376-40.376-40.376s-40.376 18.077-40.376 40.376v70.658c0 5.575 4.519 10.094 10.094 10.094zm30.282-100.941c11.15 0 20.188 9.039 20.188 20.188v20.188h-40.376v-20.187c0-11.15 9.039-20.189 20.188-20.189z"/><path id="Shape_54_" d="m353.292 211.975h2.019c4.101 20.007 12.55 38.867 24.751 55.245-6.936 6.299-14.362 12.037-22.207 17.16-4.638 3.094-5.89 9.362-2.796 14s9.362 5.89 14 2.796c8.701-5.712 16.931-12.112 24.609-19.138 7.703 7.012 15.956 13.396 24.68 19.088 3 2.001 6.841 2.25 10.074.653 3.234-1.598 5.369-4.799 5.602-8.398s-1.472-7.049-4.472-9.051c-7.845-5.123-15.271-10.861-22.207-17.16 12.168-16.369 20.593-35.211 24.68-55.194h2.019c5.575 0 10.094-4.519 10.094-10.094s-4.519-10.094-10.094-10.094h-30.282c0-5.575-4.519-10.094-10.094-10.094s-10.094 4.519-10.094 10.094h-30.282c-5.575 0-10.094 4.519-10.094 10.094 0 5.574 4.519 10.093 10.094 10.093zm57.96 0c-3.333 14.283-9.296 27.821-17.584 39.922-8.288-12.101-14.251-25.639-17.584-39.922z"/></g></g></g></svg>